<mxfile host="drawio-plugin" modified="2022-07-31T22:01:56.003Z" agent="5.0 (Macintosh; Intel Mac OS X 12_1_0) AppleWebKit/537.36 (KHTML, like Gecko) Chrome/89.0.4389.114 Safari/537.36" etag="5j0-qPTW5UM-0jzYqOcD" version="15.5.4" type="embed"><diagram id="kgpKYQtTHZ0yAKxKKP6v" name="Page-1"><mxGraphModel dx="1476" dy="2587" grid="1" gridSize="10" guides="1" tooltips="1" connect="1" arrows="1" fold="1" page="1" pageScale="1" pageWidth="850" pageHeight="1100" math="0" shadow="0"><root><mxCell id="0"/><mxCell id="1" parent="0"/><mxCell id="10" value="Admin Panel" style="group;fillColor=#0050ef;rounded=0;fontColor=#ffffff;strokeColor=#001DBC;fontSize=17;labelBackgroundColor=default;" parent="1" vertex="1" connectable="0"><mxGeometry x="90" y="80" width="380" height="160" as="geometry"/></mxCell><mxCell id="2" value="&lt;font style=&quot;font-size: 17px&quot;&gt;Web (Django)&lt;/font&gt;" style="html=1;" parent="10" vertex="1"><mxGeometry x="10" y="41.9047619047619" width="144.13793103448276" height="76.19047619047619" as="geometry"/></mxCell><mxCell id="3" value="&lt;font style=&quot;font-size: 17px&quot;&gt;DB (PostgresSQL)&lt;/font&gt;" style="shape=cylinder3;whiteSpace=wrap;html=1;boundedLbl=1;backgroundOutline=1;size=15;" parent="10" vertex="1"><mxGeometry x="250" y="10" width="117.93" height="140" as="geometry"/></mxCell><mxCell id="6" value="" style="edgeStyle=orthogonalEdgeStyle;rounded=0;orthogonalLoop=1;jettySize=auto;html=1;startArrow=classic;startFill=1;" parent="10" source="2" target="3" edge="1"><mxGeometry relative="1" as="geometry"/></mxCell><mxCell id="8" value="&lt;font style=&quot;font-size: 15px&quot;&gt;tcp/ 5432&lt;/font&gt;" style="edgeLabel;html=1;align=center;verticalAlign=middle;resizable=0;points=[];" parent="6" vertex="1" connectable="0"><mxGeometry x="0.3556" y="-4" relative="1" as="geometry"><mxPoint x="-11" y="-19" as="offset"/></mxGeometry></mxCell><mxCell id="14" value="tcp/5432" style="edgeStyle=orthogonalEdgeStyle;rounded=0;orthogonalLoop=1;jettySize=auto;html=1;fontSize=15;startArrow=none;startFill=0;verticalAlign=top;" parent="1" source="3" target="12" edge="1"><mxGeometry x="0.2857" y="-10" relative="1" as="geometry"><mxPoint as="offset"/></mxGeometry></mxCell><mxCell id="24" value="Full text search" style="group;fontSize=17;align=right;labelBackgroundColor=default;fillColor=#0050EF;" parent="1" vertex="1" connectable="0"><mxGeometry x="590" y="-130" width="380" height="370" as="geometry"/></mxCell><mxCell id="12" value="&lt;font style=&quot;font-size: 17px&quot;&gt;ETL&lt;/font&gt;&lt;br&gt;&lt;font style=&quot;font-size: 12px&quot;&gt;Synchronize DB with Search Engine&lt;/font&gt;" style="html=1;rounded=0;fontSize=15;fillColor=default;verticalAlign=middle;whiteSpace=wrap;" parent="24" vertex="1"><mxGeometry x="0.005581395348715801" y="250" width="148.3720930232558" height="80" as="geometry"/></mxCell><mxCell id="17" value="&lt;font style=&quot;font-size: 17px&quot;&gt;Storage (Redis) &lt;/font&gt;&lt;br&gt;for current state" style="shape=cylinder3;whiteSpace=wrap;html=1;boundedLbl=1;backgroundOutline=1;size=15;" parent="24" vertex="1"><mxGeometry x="10.861666666666666" y="10" width="126.66666666666667" height="150" as="geometry"/></mxCell><mxCell id="18" value="" style="edgeStyle=orthogonalEdgeStyle;rounded=0;orthogonalLoop=1;jettySize=auto;html=1;fontSize=15;startArrow=classic;startFill=1;verticalAlign=top;" parent="24" source="12" target="17" edge="1"><mxGeometry relative="1" as="geometry"/></mxCell><mxCell id="19" value="&lt;font style=&quot;font-size: 15px&quot;&gt;tcp\6379&lt;/font&gt;" style="edgeLabel;html=1;align=center;verticalAlign=middle;resizable=0;points=[];fontSize=17;" parent="18" vertex="1" connectable="0"><mxGeometry x="-0.4279" y="3" relative="1" as="geometry"><mxPoint x="38" y="-24" as="offset"/></mxGeometry></mxCell><mxCell id="13" value="&lt;font style=&quot;font-size: 17px&quot;&gt;Search Engine (ElasticSearch)&lt;/font&gt;" style="shape=cylinder3;whiteSpace=wrap;html=1;boundedLbl=1;backgroundOutline=1;size=15;" parent="24" vertex="1"><mxGeometry x="242.77777777777777" y="210" width="126.66666666666667" height="150" as="geometry"/></mxCell><mxCell id="16" value="" style="edgeStyle=orthogonalEdgeStyle;rounded=0;orthogonalLoop=1;jettySize=auto;html=1;fontSize=15;startArrow=none;startFill=0;verticalAlign=top;" parent="24" target="13" edge="1"><mxGeometry relative="1" as="geometry"><mxPoint x="234.93322997415993" y="290" as="sourcePoint"/><Array as="points"><mxPoint x="147.77777777777777" y="290"/><mxPoint x="147.77777777777777" y="290"/></Array></mxGeometry></mxCell><mxCell id="25" value="&lt;font style=&quot;font-size: 15px&quot;&gt;tcp/9200&lt;/font&gt;" style="edgeLabel;html=1;align=center;verticalAlign=middle;resizable=0;points=[];fontSize=17;" parent="16" vertex="1" connectable="0"><mxGeometry x="-0.0333" y="-4" relative="1" as="geometry"><mxPoint x="50" y="-24" as="offset"/></mxGeometry></mxCell><mxCell id="69" value="" style="group;fillColor=#0050ef;fontColor=#ffffff;strokeColor=#001DBC;" parent="1" vertex="1" connectable="0"><mxGeometry y="312.5" width="520" height="320" as="geometry"/></mxCell><mxCell id="143" value="tcp/6379" style="edgeStyle=orthogonalEdgeStyle;rounded=0;orthogonalLoop=1;jettySize=auto;html=1;fontSize=17;fontColor=#FFFFCC;startArrow=classic;startFill=1;verticalAlign=top;" parent="69" source="71" target="75" edge="1"><mxGeometry relative="1" as="geometry"/></mxCell><mxCell id="71" value="&lt;font style=&quot;font-size: 17px&quot;&gt;Sto&lt;/font&gt;&lt;font style=&quot;font-size: 17px&quot;&gt;rage (Redis&lt;/font&gt;&lt;font&gt;&lt;font style=&quot;font-size: 17px&quot;&gt;)&lt;/font&gt;&lt;br&gt;&lt;/font&gt;" style="shape=cylinder3;whiteSpace=wrap;html=1;boundedLbl=1;backgroundOutline=1;size=15;" parent="69" vertex="1"><mxGeometry x="20" y="165.15" width="90" height="136.7" as="geometry"/></mxCell><mxCell id="87" value="" style="edgeStyle=orthogonalEdgeStyle;rounded=0;orthogonalLoop=1;jettySize=auto;html=1;fontSize=17;fontColor=#FFFFCC;startArrow=classic;startFill=1;verticalAlign=top;" parent="69" source="75" target="85" edge="1"><mxGeometry relative="1" as="geometry"/></mxCell><mxCell id="75" value="&lt;span style=&quot;font-size: 17px&quot;&gt;API Application&lt;/span&gt;&lt;br&gt;&lt;font style=&quot;font-size: 12px&quot;&gt;(Flask API)&lt;/font&gt;" style="html=1;rounded=0;fontSize=15;fillColor=default;verticalAlign=middle;whiteSpace=wrap;" parent="69" vertex="1"><mxGeometry x="189.71528763769882" y="182.3" width="140.563035495716" height="102.4" as="geometry"/></mxCell><mxCell id="83" value="Auth API" style="text;html=1;align=center;verticalAlign=middle;resizable=0;points=[];autosize=1;strokeColor=none;fillColor=default;fontSize=17;fontColor=#FFFFCC;" parent="69" vertex="1"><mxGeometry x="395" y="19.2" width="80" height="30" as="geometry"/></mxCell><mxCell id="84" style="edgeStyle=orthogonalEdgeStyle;rounded=0;orthogonalLoop=1;jettySize=auto;html=1;exitX=0.5;exitY=1;exitDx=0;exitDy=0;exitPerimeter=0;fontSize=17;fontColor=#FFFFCC;startArrow=classic;startFill=1;verticalAlign=top;" parent="69" source="71" target="71" edge="1"><mxGeometry relative="1" as="geometry"/></mxCell><mxCell id="86" value="tcp/5432" style="edgeStyle=orthogonalEdgeStyle;rounded=0;orthogonalLoop=1;jettySize=auto;html=1;fontSize=17;fontColor=#FFFFCC;startArrow=classic;startFill=1;verticalAlign=top;" parent="69" source="85" target="75" edge="1"><mxGeometry x="0.01" y="41" relative="1" as="geometry"><mxPoint x="-1" y="-4" as="offset"/></mxGeometry></mxCell><mxCell id="85" value="&lt;font style=&quot;font-size: 17px&quot;&gt;DB (PostgresSQL)&lt;/font&gt;" style="shape=cylinder3;whiteSpace=wrap;html=1;boundedLbl=1;backgroundOutline=1;size=15;" parent="69" vertex="1"><mxGeometry x="200" y="10" width="117.93" height="100" as="geometry"/></mxCell><mxCell id="96" value="http" style="edgeStyle=orthogonalEdgeStyle;rounded=0;orthogonalLoop=1;jettySize=auto;html=1;fontSize=17;fontColor=#FFFFCC;startArrow=classic;startFill=1;verticalAlign=top;" parent="69" source="95" target="75" edge="1"><mxGeometry relative="1" as="geometry"/></mxCell><mxCell id="95" value="Nginx" style="html=1;rounded=0;fontSize=15;fillColor=default;" parent="69" vertex="1"><mxGeometry x="395" y="180" width="113.46" height="107" as="geometry"/></mxCell><mxCell id="91" value="User" style="shape=umlActor;verticalLabelPosition=bottom;verticalAlign=top;html=1;outlineConnect=0;rounded=0;labelBackgroundColor=default;fontSize=17;fontColor=#FFFFCC;fillColor=default;labelPosition=center;align=center;" parent="1" vertex="1"><mxGeometry x="550" y="720" width="30" height="60" as="geometry"/></mxCell><mxCell id="125" value="" style="group" parent="1" vertex="1" connectable="0"><mxGeometry x="590" y="305" width="590" height="335" as="geometry"/></mxCell><mxCell id="47" value="" style="group;fillColor=#0050ef;fontColor=#ffffff;strokeColor=#001DBC;fontStyle=0;container=0;" parent="125" vertex="1" connectable="0"><mxGeometry width="590" height="324.8484848484849" as="geometry"/></mxCell><mxCell id="29" value="&lt;font style=&quot;font-size: 17px&quot;&gt;Sto&lt;/font&gt;&lt;font style=&quot;font-size: 17px&quot;&gt;rage (Redis&lt;/font&gt;&lt;font&gt;&lt;font style=&quot;font-size: 17px&quot;&gt;)&lt;/font&gt;&lt;br&gt;&lt;/font&gt;" style="shape=cylinder3;whiteSpace=wrap;html=1;boundedLbl=1;backgroundOutline=1;size=15;" parent="125" vertex="1"><mxGeometry x="481.53846153846143" y="160.8" width="102.11538461538461" height="160.8" as="geometry"/></mxCell><mxCell id="31" value="&lt;font style=&quot;font-size: 15px&quot;&gt;tcp\6379&lt;/font&gt;" style="edgeStyle=orthogonalEdgeStyle;rounded=0;orthogonalLoop=1;jettySize=auto;html=1;fontSize=12;startArrow=classic;startFill=1;verticalAlign=top;" parent="125" source="30" target="29" edge="1"><mxGeometry x="5" as="geometry"/></mxCell><mxCell id="35" style="edgeStyle=orthogonalEdgeStyle;rounded=0;orthogonalLoop=1;jettySize=auto;html=1;fontSize=12;startArrow=classic;startFill=1;verticalAlign=top;entryX=1;entryY=0.5;entryDx=0;entryDy=0;" parent="125" source="30" edge="1"><mxGeometry x="5" as="geometry"><mxPoint x="129.80769230769238" y="241.20000000000002" as="targetPoint"/></mxGeometry></mxCell><mxCell id="36" value="&lt;font style=&quot;font-size: 15px&quot;&gt;http&lt;/font&gt;" style="edgeLabel;html=1;align=center;verticalAlign=middle;resizable=0;points=[];fontSize=12;fontColor=#FFFFCC;" parent="35" vertex="1" connectable="0"><mxGeometry x="-0.077" y="4" relative="1" as="geometry"><mxPoint y="6" as="offset"/></mxGeometry></mxCell><mxCell id="30" value="&lt;span style=&quot;font-size: 17px&quot;&gt;API Application&lt;/span&gt;&lt;br&gt;&lt;font style=&quot;font-size: 12px&quot;&gt;(FAST API)&lt;/font&gt;" style="html=1;rounded=0;fontSize=15;fillColor=default;verticalAlign=middle;whiteSpace=wrap;" parent="125" vertex="1"><mxGeometry x="215.25619174277358" y="187.60000000000002" width="159.48498258167777" height="107.2" as="geometry"/></mxCell><mxCell id="48" value="Async API" style="text;html=1;align=center;verticalAlign=middle;resizable=0;points=[];autosize=1;strokeColor=none;fillColor=default;fontSize=17;fontColor=#FFFFCC;" parent="125" vertex="1"><mxGeometry x="447.5" y="20.1" width="90" height="30" as="geometry"/></mxCell><mxCell id="90" value="Cached answers" style="text;html=1;strokeColor=none;fillColor=none;align=center;verticalAlign=middle;whiteSpace=wrap;rounded=0;labelBackgroundColor=default;fontSize=17;fontColor=#FFFFCC;" parent="125" vertex="1"><mxGeometry x="390.7692307692307" y="187.60000000000002" width="68.07692307692308" height="40.2" as="geometry"/></mxCell><mxCell id="124" value="Nginx" style="html=1;rounded=0;fontSize=15;fillColor=default;" parent="125" vertex="1"><mxGeometry x="14.996153846153788" y="187.60000000000002" width="113.46153846153845" height="107.2" as="geometry"/></mxCell><mxCell id="126" style="edgeStyle=orthogonalEdgeStyle;rounded=0;orthogonalLoop=1;jettySize=auto;html=1;entryX=0.417;entryY=1;entryDx=0;entryDy=0;entryPerimeter=0;fontSize=17;fontColor=#FFFFCC;startArrow=classic;startFill=1;verticalAlign=top;" parent="1" source="30" target="13" edge="1"><mxGeometry relative="1" as="geometry"/></mxCell><mxCell id="127" value="tcp/9200" style="edgeLabel;html=1;align=center;verticalAlign=middle;resizable=0;points=[];fontSize=17;fontColor=#FFFFCC;" parent="126" vertex="1" connectable="0"><mxGeometry x="-0.0419" y="-2" relative="1" as="geometry"><mxPoint x="53" y="7" as="offset"/></mxGeometry></mxCell><mxCell id="134" value="tcp/80" style="edgeStyle=orthogonalEdgeStyle;rounded=0;orthogonalLoop=1;jettySize=auto;html=1;fontSize=17;fontColor=#FFFFCC;startArrow=classic;startFill=1;verticalAlign=top;" parent="1" source="124" target="91" edge="1"><mxGeometry relative="1" as="geometry"><Array as="points"><mxPoint x="662" y="750"/></Array></mxGeometry></mxCell><mxCell id="141" value="tcp/80" style="edgeStyle=orthogonalEdgeStyle;rounded=0;orthogonalLoop=1;jettySize=auto;html=1;fontSize=17;fontColor=#FFFFCC;startArrow=classic;startFill=1;verticalAlign=top;" parent="1" source="95" target="91" edge="1"><mxGeometry relative="1" as="geometry"><Array as="points"><mxPoint x="460" y="750"/></Array></mxGeometry></mxCell><mxCell id="144" value="Movie data" style="text;html=1;strokeColor=none;fillColor=none;align=center;verticalAlign=middle;whiteSpace=wrap;rounded=0;labelBackgroundColor=default;fontSize=17;fontColor=#FFFFCC;" parent="1" vertex="1"><mxGeometry x="700" y="660" width="60" height="30" as="geometry"/></mxCell><mxCell id="145" value="Authorization" style="text;html=1;strokeColor=none;fillColor=none;align=center;verticalAlign=middle;whiteSpace=wrap;rounded=0;labelBackgroundColor=default;fontSize=17;fontColor=#FFFFCC;" parent="1" vertex="1"><mxGeometry x="370" y="660" width="60" height="30" as="geometry"/></mxCell><mxCell id="146" style="edgeStyle=orthogonalEdgeStyle;rounded=0;orthogonalLoop=1;jettySize=auto;html=1;entryX=0.449;entryY=0.005;entryDx=0;entryDy=0;entryPerimeter=0;fontSize=17;fontColor=#FFFFCC;startArrow=classic;startFill=1;verticalAlign=top;" parent="1" source="30" target="95" edge="1"><mxGeometry relative="1" as="geometry"><Array as="points"><mxPoint x="840" y="420"/><mxPoint x="446" y="420"/></Array></mxGeometry></mxCell><mxCell id="147" value="Get auth tokens" style="edgeLabel;html=1;align=center;verticalAlign=middle;resizable=0;points=[];fontSize=17;fontColor=#FFFFCC;" parent="146" vertex="1" connectable="0"><mxGeometry x="-0.379" y="-2" relative="1" as="geometry"><mxPoint as="offset"/></mxGeometry></mxCell><mxCell id="153" style="edgeStyle=orthogonalEdgeStyle;rounded=0;orthogonalLoop=1;jettySize=auto;html=1;startArrow=classic;startFill=1;" parent="1" source="148" edge="1"><mxGeometry relative="1" as="geometry"><mxPoint x="560" y="810" as="targetPoint"/></mxGeometry></mxCell><mxCell id="154" value="&lt;span style=&quot;color: rgb(255 , 255 , 204) ; font-size: 17px&quot;&gt;tcp/80&lt;/span&gt;" style="edgeLabel;html=1;align=center;verticalAlign=middle;resizable=0;points=[];" parent="153" vertex="1" connectable="0"><mxGeometry x="0.2077" y="4" relative="1" as="geometry"><mxPoint x="-36" as="offset"/></mxGeometry></mxCell><mxCell id="168" value="" style="group;labelBackgroundColor=#0050EF;fillColor=#0050EF;" vertex="1" connectable="0" parent="1"><mxGeometry x="600" y="820" width="577.69" height="365" as="geometry"/></mxCell><mxCell id="148" value="Nginx" style="html=1;rounded=0;fontSize=15;fillColor=default;" parent="168" vertex="1"><mxGeometry x="10" y="10" width="103.46" height="107.83" as="geometry"/></mxCell><mxCell id="149" value="&lt;span style=&quot;font-size: 17px&quot;&gt;API Application&lt;/span&gt;&lt;br&gt;&lt;font style=&quot;font-size: 12px&quot;&gt;(FAST API)&lt;/font&gt;" style="html=1;rounded=0;fontSize=15;fillColor=default;verticalAlign=middle;whiteSpace=wrap;" parent="168" vertex="1"><mxGeometry x="200" y="10" width="159.48" height="107.83" as="geometry"/></mxCell><mxCell id="156" value="" style="edgeStyle=orthogonalEdgeStyle;rounded=0;orthogonalLoop=1;jettySize=auto;html=1;startArrow=classic;startFill=1;" parent="168" source="148" target="149" edge="1"><mxGeometry relative="1" as="geometry"/></mxCell><mxCell id="162" value="&lt;font style=&quot;font-size: 15px&quot;&gt;http&lt;/font&gt;" style="edgeLabel;html=1;align=center;verticalAlign=middle;resizable=0;points=[];" parent="156" vertex="1" connectable="0"><mxGeometry x="-0.0168" y="-3" relative="1" as="geometry"><mxPoint y="-27" as="offset"/></mxGeometry></mxCell><mxCell id="150" value="OLTP DB (Kafka)" style="shape=cylinder3;whiteSpace=wrap;html=1;boundedLbl=1;backgroundOutline=1;size=15;" parent="168" vertex="1"><mxGeometry x="451.5" y="10" width="87" height="109.35" as="geometry"/></mxCell><mxCell id="157" value="" style="edgeStyle=orthogonalEdgeStyle;rounded=0;orthogonalLoop=1;jettySize=auto;html=1;startArrow=none;startFill=0;" parent="168" source="149" target="150" edge="1"><mxGeometry relative="1" as="geometry"/></mxCell><mxCell id="164" value="tcp/9092" style="edgeLabel;html=1;align=center;verticalAlign=middle;resizable=0;points=[];fontSize=15;" parent="157" vertex="1" connectable="0"><mxGeometry x="-0.0545" relative="1" as="geometry"><mxPoint y="-24" as="offset"/></mxGeometry></mxCell><mxCell id="151" value="OLAP DB&amp;nbsp;&lt;br&gt;(ClickHouse)" style="shape=cylinder3;whiteSpace=wrap;html=1;boundedLbl=1;backgroundOutline=1;size=15;" parent="168" vertex="1"><mxGeometry x="220" y="245.65" width="87" height="114.35" as="geometry"/></mxCell><mxCell id="161" style="edgeStyle=orthogonalEdgeStyle;rounded=0;orthogonalLoop=1;jettySize=auto;html=1;startArrow=none;startFill=0;" parent="168" source="152" edge="1"><mxGeometry relative="1" as="geometry"><mxPoint x="310.00303017630233" y="305.32401902497026" as="targetPoint"/></mxGeometry></mxCell><mxCell id="163" value="tcp/8123" style="edgeLabel;html=1;align=center;verticalAlign=middle;resizable=0;points=[];fontSize=15;" parent="161" vertex="1" connectable="0"><mxGeometry x="-0.5757" y="2" relative="1" as="geometry"><mxPoint x="-24" y="18" as="offset"/></mxGeometry></mxCell><mxCell id="152" value="&lt;font style=&quot;font-size: 17px&quot;&gt;ETL&lt;br&gt;&lt;/font&gt;&lt;font style=&quot;font-size: 12px&quot;&gt;Synchronize OLTP DB and OLAP DB&lt;/font&gt;" style="html=1;rounded=0;fontSize=15;fillColor=default;verticalAlign=middle;whiteSpace=wrap;" parent="168" vertex="1"><mxGeometry x="420" y="261.92" width="150" height="86.8" as="geometry"/></mxCell><mxCell id="158" value="" style="edgeStyle=orthogonalEdgeStyle;rounded=0;orthogonalLoop=1;jettySize=auto;html=1;startArrow=none;startFill=0;" parent="168" source="150" target="152" edge="1"><mxGeometry relative="1" as="geometry"/></mxCell><mxCell id="165" value="tcp/9092" style="edgeLabel;html=1;align=center;verticalAlign=middle;resizable=0;points=[];fontSize=15;" parent="158" vertex="1" connectable="0"><mxGeometry x="-0.4003" relative="1" as="geometry"><mxPoint x="44" y="12" as="offset"/></mxGeometry></mxCell><mxCell id="166" value="POST" style="text;html=1;strokeColor=none;fillColor=default;align=center;verticalAlign=middle;whiteSpace=wrap;rounded=0;" vertex="1" parent="168"><mxGeometry x="370" y="66.62" width="60.52" height="23.38" as="geometry"/></mxCell><mxCell id="169" value="&lt;font style=&quot;font-size: 17px&quot;&gt;USC&lt;/font&gt;" style="text;html=1;strokeColor=none;fillColor=none;align=center;verticalAlign=middle;whiteSpace=wrap;rounded=0;labelBackgroundColor=#2A2A2A;" vertex="1" parent="168"><mxGeometry x="299.48" y="150" width="60" height="30" as="geometry"/></mxCell><mxCell id="170" value="Data on movie views" style="text;html=1;strokeColor=none;fillColor=none;align=center;verticalAlign=middle;whiteSpace=wrap;rounded=0;labelBackgroundColor=#0050EF;fontSize=17;" vertex="1" parent="168"><mxGeometry x="390" y="167.5" width="100" height="30" as="geometry"/></mxCell></root></mxGraphModel></diagram></mxfile>